/* XPM */
static const char * amon_16x16_xpm[] = {
"16 16 109 2",
"  	c None",
". 	c #830000",
"+ 	c #840000",
"@ 	c #6C0000",
"# 	c #690000",
"$ 	c #7E0000",
"% 	c #6A0000",
"& 	c #700000",
"* 	c #6A3B00",
"= 	c #553000",
"- 	c #683A00",
"; 	c #894800",
"> 	c #E67700",
", 	c #E77700",
"' 	c #7F4400",
") 	c #593200",
"! 	c #834800",
"~ 	c #D87500",
"{ 	c #7B4400",
"] 	c #693A00",
"^ 	c #5A3100",
"/ 	c #7C5C00",
"( 	c #674E00",
"_ 	c #836300",
": 	c #806100",
"< 	c #A27A00",
"[ 	c #FFC500",
"} 	c #FFC600",
"| 	c #987300",
"1 	c #826300",
"2 	c #6B5100",
"3 	c #E7EB00",
"4 	c #EAEE00",
"5 	c #8A8D00",
"6 	c #696C00",
"7 	c #858900",
"8 	c #DCE300",
"9 	c #7D8100",
"0 	c #6B6E00",
"a 	c #6A6D00",
"b 	c #9DA000",
"c 	c #E9EC00",
"d 	c #D1D400",
"e 	c #D3D600",
"f 	c #898B00",
"g 	c #7F8100",
"h 	c #D4D600",
"i 	c #777900",
"j 	c #666800",
"k 	c #8E9000",
"l 	c #D2D500",
"m 	c #F2FC00",
"n 	c #F3FD00",
"o 	c #C6CE00",
"p 	c #F5FF00",
"q 	c #F6FF00",
"r 	c #C5CD00",
"s 	c #F4FE00",
"t 	c #8C9300",
"u 	c #757C00",
"v 	c #747B00",
"w 	c #A9B000",
"x 	c #F1FB00",
"y 	c #ABE800",
"z 	c #8DBF00",
"A 	c #ABE900",
"B 	c #8EC000",
"C 	c #ADEB00",
"D 	c #658800",
"E 	c #527100",
"F 	c #517000",
"G 	c #78A200",
"H 	c #ACEA00",
"I 	c #8DD800",
"J 	c #8ED900",
"K 	c #72B100",
"L 	c #73B100",
"M 	c #8FDA00",
"N 	c #5D9400",
"O 	c #5B9600",
"P 	c #5A9500",
"Q 	c #69A400",
"R 	c #7DF300",
"S 	c #7DF400",
"T 	c #65C600",
"U 	c #66C600",
"V 	c #66C700",
"W 	c #7FF700",
"X 	c #7FF600",
"Y 	c #6BD000",
"Z 	c #36F100",
"` 	c #2CC400",
" .	c #2CC500",
"..	c #2DC500",
"+.	c #2ECE00",
"@.	c #36F000",
"#.	c #1FD700",
"$.	c #1FD800",
"%.	c #19B000",
"&.	c #19AF00",
"*.	c #18AF00",
"=.	c #1AB800",
"-.	c #00F100",
";.	c #00F200",
">.	c #00C100",
",.	c #00C900",
"'.	c #00C400",
").	c #00CD00",
"!.	c #00F000",
"                                ",
"  . + @ + + # $ $ % + + & . .   ",
"  * * = * - ; > , ' - * ) * *   ",
"  * * = * - ! ~ ~ { ] * ^ * *   ",
"  / / ( _ : < [ } | : 1 2 / /   ",
"  3 4 5 6 6 7 8 8 9 0 a b c 3   ",
"  d e f g g f e h i j j k l d   ",
"  m n o p q r m s t u v w n x   ",
"  y y z A A B A C D E F G H y   ",
"  I J K J J L J M N O P Q J I   ",
"  R S T S S U S S V W X Y R R   ",
"  Z Z ` Z Z  .Z Z ..Z Z +.@.Z   ",
"  #.$.%.$.$.&.$.$.*.$.$.=.#.#.  ",
"  -.;.>.;.;.>.;.;.>.;.;.,.-.-.  ",
"  -.-.'.-.-.'.-.-.'.-.-.).!.-.  ",
"                                "};
