/* XPM */
static const char * amon_22x22_xpm[] = {
"22 22 258 2",
"  	c None",
". 	c #720000",
"+ 	c #7A0000",
"@ 	c #680000",
"# 	c #700000",
"$ 	c #7B0000",
"% 	c #6A0000",
"& 	c #6B0000",
"* 	c #780000",
"= 	c #6E0000",
"- 	c #6F0000",
"; 	c #700100",
"> 	c #780100",
", 	c #650100",
"' 	c #6E0100",
") 	c #670200",
"! 	c #6F0400",
"~ 	c #7C0300",
"{ 	c #6E0400",
"] 	c #680100",
"^ 	c #6B0200",
"/ 	c #6C0200",
"( 	c #6F0100",
"_ 	c #663900",
": 	c #6E3D00",
"< 	c #5C3300",
"[ 	c #653800",
"} 	c #6D3D00",
"| 	c #5E3500",
"1 	c #D97000",
"2 	c #EC7A00",
"3 	c #D76E00",
"4 	c #5D3400",
"5 	c #6E3E00",
"6 	c #613700",
"7 	c #633700",
"8 	c #733900",
"9 	c #7B3D00",
"0 	c #683400",
"a 	c #713800",
"b 	c #6A3500",
"c 	c #E47000",
"d 	c #F77900",
"e 	c #E27000",
"f 	c #7C3D00",
"g 	c #6E3700",
"h 	c #703700",
"i 	c #723900",
"j 	c #614E00",
"k 	c #695300",
"l 	c #584600",
"m 	c #6A5500",
"n 	c #5B4900",
"o 	c #C49900",
"p 	c #D6A700",
"q 	c #D5A700",
"r 	c #C29800",
"s 	c #6B5500",
"t 	c #5F4C00",
"u 	c #5F4B00",
"v 	c #685300",
"w 	c #614D00",
"x 	c #715300",
"y 	c #785900",
"z 	c #785800",
"A 	c #654C00",
"B 	c #725600",
"C 	c #7D5D00",
"D 	c #7C5C00",
"E 	c #6B5100",
"F 	c #E6AA00",
"G 	c #FAB900",
"H 	c #E4A900",
"I 	c #6B5000",
"J 	c #6F5400",
"K 	c #6D5100",
"L 	c #705300",
"M 	c #CFD200",
"N 	c #DFE200",
"O 	c #E2E500",
"P 	c #AEB000",
"Q 	c #565900",
"R 	c #6B6D00",
"S 	c #686B00",
"T 	c #5A5C00",
"U 	c #C1C600",
"V 	c #D3D900",
"W 	c #D2D800",
"X 	c #BFC500",
"Y 	c #595C00",
"Z 	c #696C00",
"` 	c #6C6F00",
" .	c #525400",
"..	c #C2C400",
"+.	c #E1E400",
"@.	c #CFD100",
"#.	c #E6E500",
"$.	c #F7F500",
"%.	c #FAF900",
"&.	c #C3C200",
"*.	c #636200",
"=.	c #797800",
"-.	c #767500",
";.	c #666500",
">.	c #E5E400",
",.	c #F9F700",
"'.	c #E4E200",
").	c #6A6900",
"!.	c #7B7B00",
"~.	c #7F7E00",
"{.	c #626200",
"].	c #D8D700",
"^.	c #F9F800",
"/.	c #F7F600",
"(.	c #B9C400",
"_.	c #C7D300",
":.	c #A7B000",
"<.	c #BFC900",
"[.	c #D0DC00",
"}.	c #D1DD00",
"|.	c #B1BB00",
"1.	c #B0BB00",
"2.	c #C8D400",
"3.	c #B5C000",
"4.	c #535A00",
"5.	c #616A00",
"6.	c #646D00",
"7.	c #4C5400",
"8.	c #ADB700",
"9.	c #CAD600",
"0.	c #DBE600",
"a.	c #ECF600",
"b.	c #C6D000",
"c.	c #D6E100",
"d.	c #EBF500",
"e.	c #EBF600",
"f.	c #CAD300",
"g.	c #D2DC00",
"h.	c #D7E100",
"i.	c #646A00",
"j.	c #737B00",
"k.	c #767E00",
"l.	c #5D6200",
"m.	c #CED700",
"n.	c #EDF800",
"o.	c #DBE500",
"p.	c #9ACF00",
"q.	c #A4DD00",
"r.	c #A5DC00",
"s.	c #8CBD00",
"t.	c #98CC00",
"u.	c #A5DE00",
"v.	c #90C100",
"w.	c #95C700",
"x.	c #486100",
"y.	c #517000",
"z.	c #537300",
"A.	c #425A00",
"B.	c #91C200",
"C.	c #A6E000",
"D.	c #ADE200",
"E.	c #BAF200",
"F.	c #BAF300",
"G.	c #9CCC00",
"H.	c #ABDF00",
"I.	c #BBF300",
"J.	c #A0D100",
"K.	c #A6D900",
"L.	c #AADE00",
"M.	c #4B6300",
"N.	c #587200",
"O.	c #5B7600",
"P.	c #465B00",
"Q.	c #A2D300",
"R.	c #BCF500",
"S.	c #69D200",
"T.	c #70E000",
"U.	c #5FBE00",
"V.	c #67CF00",
"W.	c #71E000",
"X.	c #71E100",
"Y.	c #62C200",
"Z.	c #65C900",
"`.	c #65C800",
" +	c #6FDE00",
".+	c #6FDF00",
"++	c #64C600",
"@+	c #65CB00",
"#+	c #74E100",
"$+	c #7CF100",
"%+	c #69CB00",
"&+	c #72DD00",
"*+	c #7CF200",
"=+	c #6BD000",
"-+	c #6FD800",
";+	c #7DF200",
">+	c #6ED500",
",+	c #6CD300",
"'+	c #7DF300",
")+	c #70D900",
"!+	c #70DB00",
"~+	c #74E000",
"{+	c #36D100",
"]+	c #3ADF00",
"^+	c #31BC00",
"/+	c #35CD00",
"(+	c #3AE000",
"_+	c #32C100",
":+	c #34C800",
"<+	c #34C700",
"[+	c #33C300",
"}+	c #3AE100",
"|+	c #34CB00",
"1+	c #36D000",
"2+	c #3AE300",
"3+	c #3EF300",
"4+	c #35CE00",
"5+	c #3EF400",
"6+	c #3FF400",
"7+	c #36D200",
"8+	c #38DA00",
"9+	c #37D800",
"0+	c #37D400",
"a+	c #38DB00",
"b+	c #39DD00",
"c+	c #08CF00",
"d+	c #08DD00",
"e+	c #07BB00",
"f+	c #08CB00",
"g+	c #08DE00",
"h+	c #07BF00",
"i+	c #07C600",
"j+	c #07C500",
"k+	c #07C100",
"l+	c #07C900",
"m+	c #00E300",
"n+	c #00F400",
"o+	c #00CB00",
"p+	c #00DF00",
"q+	c #00F500",
"r+	c #00D100",
"s+	c #00D800",
"t+	c #00D600",
"u+	c #00D300",
"v+	c #00DB00",
"w+	c #00E200",
"x+	c #00C800",
"y+	c #00D700",
"z+	c #00B300",
"A+	c #00C500",
"B+	c #00D900",
"C+	c #00B700",
"D+	c #00BF00",
"E+	c #00BE00",
"F+	c #00B900",
"G+	c #00C100",
"H+	c #00CC00",
"I+	c #00DC00",
"                                            ",
"  . + + @ # $ $ % & * * % & $ $ = - + + .   ",
"  ; > > , ' > > ) ! ~ ~ { ] > > ^ / > > (   ",
"  _ : : < [ : } | 1 2 2 3 4 } 5 6 7 : : _   ",
"  8 9 9 0 a 9 9 b c d d e b 9 f g h 9 9 i   ",
"  j k k l j m m n o p q r n m s t u v k w   ",
"  x y z A B C D E F G G H I D C J K z y L   ",
"  M N O P Q R S T U V W X Y Z `  ...+.N @.  ",
"  #.$.%.&.*.=.-.;.>.,.,.'.).!.~.{.].^./.#.  ",
"  (._._.:.<.[.}.|.1.2._.3.4.5.6.7.8.9.2.(.  ",
"  0.a.a.b.c.d.e.f.g.a.d.h.i.j.k.l.m.n.e.o.  ",
"  p.q.r.s.t.u.u.v.w.u.q.t.x.y.z.A.B.C.q.p.  ",
"  D.E.F.G.H.F.I.J.K.I.E.L.M.N.O.P.Q.R.F.D.  ",
"  S.T.T.U.V.W.X.Y.Z.X.W.`.Y. +.+++@+T.T.S.  ",
"  #+$+$+%+&+$+*+=+-+;+;+>+,+'+'+)+!+$+$+~+  ",
"  {+]+]+^+/+(+(+_+:+(+(+<+[+(+}+:+|+]+]+1+  ",
"  2+3+3+4+(+5+6+7+8+6+6+9+0+6+6+a+b+3+3+2+  ",
"  c+d+d+e+f+g+g+h+i+g+g+j+k+g+g+i+l+d+d+c+  ",
"  m+n+n+o+p+q+q+r+s+q+q+t+u+q+q+s+v+n+n+w+  ",
"  x+y+s+z+A+s+B+C+D+B+s+E+F+B+B+D+G+y+s+x+  ",
"  m+n+n+H+p+n+q+r+B+q+q+y+u+q+q+B+I+n+n+w+  ",
"                                            "};
