/* XPM */
static const char * amon_32x32_xpm[] = {
"32 32 225 2",
"  	c None",
". 	c #630000",
"+ 	c #560000",
"@ 	c #550000",
"# 	c #5E0000",
"$ 	c #6C0000",
"% 	c #800000",
"& 	c #6E0000",
"* 	c #6D0000",
"= 	c #6F0000",
"- 	c #680000",
"; 	c #780000",
"> 	c #442200",
", 	c #4F2700",
"' 	c #432100",
") 	c #894400",
"! 	c #9E4D00",
"~ 	c #844100",
"{ 	c #3F2100",
"] 	c #4A2600",
"^ 	c #6A3500",
"/ 	c #7F3F00",
"( 	c #6D3600",
"_ 	c #6C3600",
": 	c #DB6B00",
"< 	c #FF7D00",
"[ 	c #D66900",
"} 	c #6E3700",
"| 	c #673300",
"1 	c #783B00",
"2 	c #443500",
"3 	c #4F3D00",
"4 	c #433400",
"5 	c #433300",
"6 	c #886600",
"7 	c #9E7600",
"8 	c #866500",
"9 	c #413000",
"0 	c #4A3900",
"a 	c #6A5200",
"b 	c #7F6100",
"c 	c #6D5300",
"d 	c #6C5300",
"e 	c #DBA500",
"f 	c #FFC000",
"g 	c #D6A100",
"h 	c #6E5500",
"i 	c #675000",
"j 	c #785B00",
"k 	c #674E00",
"l 	c #695000",
"m 	c #7D5F00",
"n 	c #695100",
"o 	c #D7A100",
"p 	c #FABC00",
"q 	c #FBBD00",
"r 	c #D19E00",
"s 	c #644D00",
"t 	c #755900",
"u 	c #654D00",
"v 	c #8B8B00",
"w 	c #A3A300",
"x 	c #8A8A00",
"y 	c #464600",
"z 	c #525200",
"A 	c #8C8C00",
"B 	c #898900",
"C 	c #454500",
"D 	c #424200",
"E 	c #9C9C00",
"F 	c #D6D600",
"G 	c #FFFF00",
"H 	c #DBDB00",
"I 	c #6C6C00",
"J 	c #7F7F00",
"K 	c #6E6E00",
"L 	c #676700",
"M 	c #F0F000",
"N 	c #CFCF00",
"O 	c #CBCB00",
"P 	c #F3F300",
"Q 	c #666600",
"R 	c #797900",
"S 	c #D0D000",
"T 	c #686800",
"U 	c #616100",
"V 	c #E5E500",
"W 	c #C6C600",
"X 	c #889000",
"Y 	c #A3AC00",
"Z 	c #8A8F00",
"` 	c #8B9100",
" .	c #888F00",
"..	c #8A9100",
"+.	c #434800",
"@.	c #505700",
"#.	c #3E4400",
"$.	c #9AA200",
"%.	c #CAD600",
"&.	c #F2FF00",
"*.	c #D0DB00",
"=.	c #CDD900",
"-.	c #686F00",
";.	c #778000",
">.	c #616800",
",.	c #E4F000",
"'.	c #C5CF00",
").	c #BAC500",
"!.	c #E0EC00",
"~.	c #BEC800",
"{.	c #BDC800",
"].	c #DFEB00",
"^.	c #BCC600",
"/.	c #5F6500",
"(.	c #6E7600",
"_.	c #5A5F00",
":.	c #D2DD00",
"<.	c #B8C000",
"[.	c #83AD00",
"}.	c #97C900",
"|.	c #97C700",
"1.	c #83AF00",
"2.	c #83AE00",
"3.	c #86B000",
"4.	c #425800",
"5.	c #4A6500",
"6.	c #405400",
"7.	c #90BE00",
"8.	c #81AB00",
"9.	c #A1D600",
"0.	c #C0FF00",
"a.	c #A5DB00",
"b.	c #A3D900",
"c.	c #536F00",
"d.	c #5F8000",
"e.	c #4D6800",
"f.	c #B5F000",
"g.	c #9DCF00",
"h.	c #90BF00",
"i.	c #ACE400",
"j.	c #92C200",
"k.	c #92C100",
"l.	c #92C300",
"m.	c #486300",
"n.	c #557200",
"o.	c #465D00",
"p.	c #8DBB00",
"q.	c #5AB400",
"r.	c #69D100",
"s.	c #5AB500",
"t.	c #5AB300",
"u.	c #5CB500",
"v.	c #5DB600",
"w.	c #57AA00",
"x.	c #62C500",
"y.	c #57B100",
"z.	c #6CD600",
"A.	c #80FF00",
"B.	c #6EDB00",
"C.	c #6DD900",
"D.	c #6FDD00",
"E.	c #68CE00",
"F.	c #78F000",
"G.	c #68CF00",
"H.	c #5FBC00",
"I.	c #70DF00",
"J.	c #5FBE00",
"K.	c #5FBD00",
"L.	c #60BF00",
"M.	c #5DBB00",
"N.	c #5FBF00",
"O.	c #5BB500",
"P.	c #69D200",
"Q.	c #5CB700",
"R.	c #2DB700",
"S.	c #35D600",
"T.	c #2DB600",
"U.	c #2DB900",
"V.	c #2EBA00",
"W.	c #2AAE00",
"X.	c #31CA00",
"Y.	c #2DB200",
"Z.	c #3FFF00",
"`.	c #36DB00",
" +	c #36D900",
".+	c #37DD00",
"++	c #33CE00",
"@+	c #3CF100",
"#+	c #33CF00",
"$+	c #2EBD00",
"%+	c #37DF00",
"&+	c #2FBF00",
"*+	c #2FBE00",
"=+	c #2FBD00",
"-+	c #2EBC00",
";+	c #2FC000",
">+	c #2CB600",
",+	c #34D200",
"'+	c #2EB800",
")+	c #00B600",
"!+	c #00D600",
"~+	c #00B500",
"{+	c #00B700",
"]+	c #00B400",
"^+	c #00B800",
"/+	c #00AC00",
"(+	c #00CA00",
"_+	c #00B100",
":+	c #00FF00",
"<+	c #00DB00",
"[+	c #00D900",
"}+	c #00DD00",
"|+	c #00CE00",
"1+	c #00F000",
"2+	c #00CF00",
"3+	c #00AF00",
"4+	c #00B000",
"5+	c #00AE00",
"6+	c #00B300",
"7+	c #00A500",
"8+	c #00C600",
"9+	c #00AB00",
"0+	c #00C900",
"a+	c #00B200",
"b+	c #00C700",
"                                                                ",
"    . . . . + @ . . . . @ + . . . .   + . . . .   # . . . .     ",
"  $ % % % % & * % % % % * & % % % % $ = % % % % - ; % % % % -   ",
"  $ % % % % & * % % % % * & % % % % $ = % % % % - ; % % % % -   ",
"  > , , , , ' > , , , , ' ) ! ! ! ! ~ ' , , , , { ] , , , ,     ",
"  ^ / / / / ( _ / / / / _ : < < < < [ } / / / / | 1 / / / / |   ",
"  ^ / / / / ( _ / / / / _ : < < < < [ } / / / / | 1 / / / / |   ",
"  2 3 3 3 3 4 5 3 3 3 3 5 6 7 7 7 7 8 5 3 3 3 3 9 0 3 3 3 3     ",
"  a b b b b c d b b b b d e f f f f g h b b b b i j b b b b k   ",
"  l m m m m a n m m m m n o p q q q r d m m m m s t m m m m u   ",
"  v w w w w x y z z z z y A w w w w B C z z z z D E w w w w     ",
"  F G G G G H I J J J J I H G G G G F K J J J J L M G G G G N   ",
"  O P P P P N Q R R R R Q S P P P P O T R R R R U V P P P P W   ",
"  X Y Y Y Y Z ` Y Y Y Y  ...Y Y Y Y X +.@.@.@.@.#.$.Y Y Y Y     ",
"  %.&.&.&.&.*.=.&.&.&.&.=.*.&.&.&.&.%.-.;.;.;.;.>.,.&.&.&.&.'.  ",
"  ).!.!.!.!.~.{.].!.!.!.^.~.].].].].)./.(.(.(.(._.:.].].].].<.  ",
"  [.}.}.|.|.1.2.}.}.}.}.2.3.}.}.}.}.[.4.5.5.5.5.6.7.}.}.}.}.8.  ",
"  9.0.0.0.0.a.b.0.0.0.0.b.a.0.0.0.0.9.c.d.d.d.d.e.f.0.0.0.0.g.  ",
"  h.i.i.i.i.j.j.i.i.i.i.k.l.i.i.i.i.h.m.n.n.n.n.o.9.i.i.i.i.p.  ",
"  q.r.r.r.r.q.s.r.r.r.r.t.u.r.r.r.r.t.v.r.r.r.r.w.x.r.r.r.r.y.  ",
"  z.A.A.A.A.B.C.A.A.A.A.C.B.A.A.A.A.z.D.A.A.A.A.E.F.A.A.A.A.G.  ",
"  H.I.I.I.I.J.K.I.I.I.I.H.L.I.I.I.I.M.N.I.I.I.I.O.P.I.I.I.I.Q.  ",
"  R.S.S.S.S.R.R.S.S.S.S.T.U.S.S.S.S.T.V.S.S.S.S.W.X.S.S.S.S.Y.  ",
"  S.Z.Z.Z.Z.`. +Z.Z.Z.Z. +`.Z.Z.Z.Z.S..+Z.Z.Z.Z.++@+Z.Z.Z.Z.#+  ",
"  $+%+%+%+%+&+*+%+%+%+%+=+&+%+%+%+%+-+;+%+%+%+%+>+,+%+%+%+%+'+  ",
"  )+!+!+!+!+)+)+!+!+!+!+~+{+!+!+!+!+]+^+!+!+!+!+/+(+!+!+!+!+_+  ",
"  !+:+:+:+:+<+[+:+:+:+:+[+<+:+:+:+:+!+}+:+:+:+:+|+1+:+:+:+:+2+  ",
"  3+!+!+!+!+_+_+!+!+!+!+4+_+!+!+!+!+5+6+!+!+!+!+7+8+!+!+!+!+9+  ",
"  ]+!+!+!+!+~+~+!+!+!+!+6+)+!+!+!+!+6+{+!+!+!+!+9+0+!+!+!+!+3+  ",
"  !+:+:+:+:+<+[+:+:+:+:+[+<+:+:+:+:+!+}+:+:+:+:+|+1+:+:+:+:+2+  ",
"  4+!+!+!+!+_+a+!+!+!+!+_+a+!+!+!+!+3+]+!+!+!+!+7+b+!+!+!+!+/+  ",
"                                                                "};
